<?xml version="1.0" encoding="UTF-8"?>
<svg version="1.1" xmlns="http://www.w3.org/2000/svg" width="177" height="106">
<path d="M0 0 C0 13.86 0 27.72 0 42 C-15.90091463 42.08021762 -15.90091463 42.08021762 -22.71484375 42.09765625 C-27.35177223 42.1095799 -31.98862119 42.12363714 -36.62548828 42.15087891 C-40.36671822 42.17271949 -44.10786281 42.18459212 -47.84915161 42.18975449 C-49.27158958 42.19343021 -50.69402324 42.20060767 -52.11642456 42.21146011 C-69.49198815 42.33867457 -69.49198815 42.33867457 -76 38 C-76 37.34 -76 36.68 -76 36 C-75.34 36 -74.68 36 -74 36 C-74.0825 34.824375 -74.165 33.64875 -74.25 32.4375 C-74.20170923 27.89011912 -73.20948887 24.31957688 -70 21 C-65.7193511 18.14012322 -61.02476942 17.05654199 -55.96484375 16.515625 C-44.45819005 15.2541232 -35.69220932 11.93356687 -25.53662109 6.29101562 C-16.96744683 1.60186585 -9.75763753 0 0 0 Z " fill="#23547F" transform="translate(151,26)"/>
<path d="M0 0 C1.08321533 -0.00080566 2.16643066 -0.00161133 3.2824707 -0.00244141 C8.01465812 0.03101212 12.07105169 0.25171034 16.75 1.1875 C16.75 4.8175 16.75 8.4475 16.75 12.1875 C15.24373047 12.31705078 15.24373047 12.31705078 13.70703125 12.44921875 C1.92156772 13.60283766 -7.74122893 16.64355312 -18.125 22.5 C-23.9839484 25.50989114 -28.66163727 25.54256468 -35.15625 25.28515625 C-46.92357755 24.85387798 -58.69070025 27.08393927 -70.125 29.625 C-71.05836182 29.83020264 -71.99172363 30.03540527 -72.95336914 30.24682617 C-79.52540061 31.753773 -79.52540061 31.753773 -85.25 35.1875 C-86.43927659 37.24402057 -86.43927659 37.24402057 -87 39.5625 C-87.22558594 40.35914063 -87.45117188 41.15578125 -87.68359375 41.9765625 C-87.87050781 42.70617188 -88.05742188 43.43578125 -88.25 44.1875 C-88.518125 45.095 -88.78625 46.0025 -89.0625 46.9375 C-89.43038074 49.30903935 -89.43038074 49.30903935 -88.1875 51.8125 C-87.878125 52.59625 -87.56875 53.38 -87.25 54.1875 C-87.91 55.1775 -88.57 56.1675 -89.25 57.1875 C-86.28 57.8475 -83.31 58.5075 -80.25 59.1875 C-80.25 59.8475 -80.25 60.5075 -80.25 61.1875 C-91.55615454 61.56647725 -104.06160201 61.65444526 -114.25 56.1875 C-114.25 54.8675 -114.25 53.5475 -114.25 52.1875 C-113.59 52.1875 -112.93 52.1875 -112.25 52.1875 C-112.47816406 51.59582031 -112.70632812 51.00414062 -112.94140625 50.39453125 C-115.97235927 42.06280837 -115.97235927 42.06280837 -114.25 38.1875 C-107.61919424 29.69178012 -95.95289566 27.78326792 -86.0625 25.125 C-84.83724609 24.78662109 -83.61199219 24.44824219 -82.34960938 24.09960938 C-76.25427076 22.43841272 -70.23138389 20.99380029 -64.01171875 19.8828125 C-56.94935214 18.41117591 -51.99545761 15.37145476 -46.25 11.125 C-31.68260779 0.66988324 -17.5555464 0.0127168 0 0 Z " fill="#B00011" transform="translate(134.25,6.8125)"/>
<path d="M0 0 C1.2065625 0.0309375 1.2065625 0.0309375 2.4375 0.0625 C1.82472388 3.02425123 1.18377478 4.44308783 -0.5625 7.0625 C0.7575 7.0625 2.0775 7.0625 3.4375 7.0625 C3.7675 4.7525 4.0975 2.4425 4.4375 0.0625 C11.86607143 -0.08035714 11.86607143 -0.08035714 15.4375 1.0625 C15.4375 2.3825 15.4375 3.7025 15.4375 5.0625 C13.1275 4.7325 10.8175 4.4025 8.4375 4.0625 C8.1075 5.0525 7.7775 6.0425 7.4375 7.0625 C8.4275 7.0625 9.4175 7.0625 10.4375 7.0625 C10.4375 8.3825 10.4375 9.7025 10.4375 11.0625 C9.4475 11.0625 8.4575 11.0625 7.4375 11.0625 C7.4375 14.0325 7.4375 17.0025 7.4375 20.0625 C6.1175 20.0625 4.7975 20.0625 3.4375 20.0625 C3.4375 17.0925 3.4375 14.1225 3.4375 11.0625 C2.1175 11.0625 0.7975 11.0625 -0.5625 11.0625 C-0.5625 14.0325 -0.5625 17.0025 -0.5625 20.0625 C-1.8825 20.0625 -3.2025 20.0625 -4.5625 20.0625 C-4.5625 17.0925 -4.5625 14.1225 -4.5625 11.0625 C-5.2225 11.0625 -5.8825 11.0625 -6.5625 11.0625 C-6.5625 9.7425 -6.5625 8.4225 -6.5625 7.0625 C-5.9025 7.0625 -5.2425 7.0625 -4.5625 7.0625 C-4.418125 6.093125 -4.27375 5.12375 -4.125 4.125 C-3.3825 0.0825 -3.3825 0.0825 0 0 Z " fill="#245580" transform="translate(149.5625,72.9375)"/>
<path d="M0 0 C3 0.1875 3 0.1875 5 1.1875 C4.814375 1.991875 4.62875 2.79625 4.4375 3.625 C4.2209375 4.8934375 4.2209375 4.8934375 4 6.1875 C4.33 6.5175 4.66 6.8475 5 7.1875 C5.45375 6.218125 5.9075 5.24875 6.375 4.25 C8 1.1875 8 1.1875 10 0.1875 C12.3329866 0.14727609 14.66706666 0.14429753 17 0.1875 C17 1.8375 17 3.4875 17 5.1875 C14.03 4.6925 14.03 4.6925 11 4.1875 C11.33 5.8375 11.66 7.4875 12 9.1875 C13.65 9.1875 15.3 9.1875 17 9.1875 C16.67 10.8375 16.34 12.4875 16 14.1875 C10.58461538 14.55673077 10.58461538 14.55673077 7.625 12.6875 C7.08875 12.1925 6.5525 11.6975 6 11.1875 C5.62875 11.6825 5.2575 12.1775 4.875 12.6875 C2.22454058 14.80786754 0.30439359 14.46872499 -3 14.1875 C-3.66 13.8575 -4.32 13.5275 -5 13.1875 C-4.835 12.56875 -4.67 11.95 -4.5 11.3125 C-3.88483008 8.69802783 -3.968643 7.31292799 -4.625 4.6875 C-4.74875 3.8625 -4.8725 3.0375 -5 2.1875 C-3 0.1875 -3 0.1875 0 0 Z M0 3.1875 C0 3.8475 0 4.5075 0 5.1875 C0.66 4.8575 1.32 4.5275 2 4.1875 C1.34 3.8575 0.68 3.5275 0 3.1875 Z M-1 9.1875 C-1 9.8475 -1 10.5075 -1 11.1875 C-0.34 11.1875 0.32 11.1875 1 11.1875 C1 10.5275 1 9.8675 1 9.1875 C0.34 9.1875 -0.32 9.1875 -1 9.1875 Z " fill="#245580" transform="translate(31,79.8125)"/>
<path d="M0 0 C2.97 0 5.94 0 9 0 C11.31332486 3.46998729 11.33957563 4.92509248 11 9 C10.01 10.485 10.01 10.485 9 12 C9.66 12.78375 10.32 13.5675 11 14.375 C13 17 13 17 13 19 C10.75 19.3125 10.75 19.3125 8 19 C5.6875 16.5 5.6875 16.5 4 14 C3.67 15.65 3.34 17.3 3 19 C2.01 19 1.02 19 0 19 C0 12.73 0 6.46 0 0 Z M4 4 C4.33 5.32 4.66 6.64 5 8 C5.66 7.67 6.32 7.34 7 7 C6.67 6.01 6.34 5.02 6 4 C5.34 4 4.68 4 4 4 Z " fill="#245580" transform="translate(0,74)"/>
<path d="M0 0 C1.32 0 2.64 0 4 0 C4.33 2.31 4.66 4.62 5 7 C7.31 7.33 9.62 7.66 12 8 C12 11.96 12 15.92 12 20 C11.01 20 10.02 20 9 20 C8.34 17.03 7.68 14.06 7 11 C6.01 11.495 6.01 11.495 5 12 C4.53476937 13.89533342 4.53476937 13.89533342 4.375 16.0625 C4.189375 18.0115625 4.189375 18.0115625 4 20 C2.68 20 1.36 20 0 20 C0 13.4 0 6.8 0 0 Z " fill="#245580" transform="translate(50,73)"/>
<path d="M0 0 C2.50651042 0.13020833 5.01302083 0.26041667 7.51953125 0.390625 C7.51953125 4.680625 7.51953125 8.970625 7.51953125 13.390625 C5.93140625 13.638125 4.34328125 13.885625 2.70703125 14.140625 C1.81371094 14.27984375 0.92039063 14.4190625 0 14.5625 C-2.48046875 14.390625 -2.48046875 14.390625 -4.28125 12.59375 C-5.89107958 9.63627807 -5.89586301 7.71377908 -5.48046875 4.390625 C-3.91433862 1.55424601 -3.26382833 0.51398871 0 0 Z M-0.48046875 4.390625 C-1.49157968 7.43975728 -1.49157968 7.43975728 -0.48046875 10.390625 C0.83953125 10.060625 2.15953125 9.730625 3.51953125 9.390625 C3.51953125 8.070625 3.51953125 6.750625 3.51953125 5.390625 C2.19953125 5.060625 0.87953125 4.730625 -0.48046875 4.390625 Z " fill="#245580" transform="translate(134.48046875,79.609375)"/>
<path d="M0 0 C2.375 1 2.375 1 4 3 C4.56641498 5.77427747 4.56641498 8.22572253 4 11 C1.81246717 13.6923481 0.41576045 13.93936827 -3 14.4375 C-6 14 -6 14 -8.375 12.375 C-10.48706506 9.28813568 -10.61195145 7.6717087 -10 4 C-7.20125452 -0.09047416 -4.83066808 -0.70447243 0 0 Z M-5 4 C-5.6814823 5.89179203 -5.6814823 5.89179203 -6 8 C-5.34 8.66 -4.68 9.32 -4 10 C-1.89179203 9.6814823 -1.89179203 9.6814823 0 9 C-0.33 7.35 -0.66 5.7 -1 4 C-2.32 4 -3.64 4 -5 4 Z " fill="#245580" transform="translate(74,80)"/>
<path d="M0 0 C2.375 1 2.375 1 4 3 C4.56641498 5.77427747 4.56641498 8.22572253 4 11 C1.78300364 13.7286109 0.41355329 13.94936082 -3.0625 14.375 C-6 14 -6 14 -7.8125 12.875 C-9.48108777 10.24038773 -9.81026737 8.09896635 -10 5 C-8.15009818 -0.26510519 -5.27152147 -0.42172172 0 0 Z M-4 4 C-4.66 5.32 -5.32 6.64 -6 8 C-5.34 8.66 -4.68 9.32 -4 10 C-1.89179203 9.6814823 -1.89179203 9.6814823 0 9 C-0.33 7.35 -0.66 5.7 -1 4 C-1.99 4 -2.98 4 -4 4 Z " fill="#245580" transform="translate(89,80)"/>
<path d="M0 0 C4.62 0 9.24 0 14 0 C14 1.32 14 2.64 14 4 C12.35 4 10.7 4 9 4 C9 8.95 9 13.9 9 19 C7.68 19 6.36 19 5 19 C5 14.05 5 9.1 5 4 C3.35 4 1.7 4 0 4 C0 2.68 0 1.36 0 0 Z " fill="#245580" transform="translate(108,74)"/>
<path d="M0 0 C0 1.65 0 3.3 0 5 C-1.65 5 -3.3 5 -5 5 C-5 6.32 -5 7.64 -5 9 C-3.35 9 -1.7 9 0 9 C0 10.65 0 12.3 0 14 C-6.30818278 14.35706695 -6.30818278 14.35706695 -8.9375 13 C-10.65930485 9.75895557 -10.66300779 6.57577233 -10 3 C-7.16372225 -0.49080339 -4.29430593 -0.29279359 0 0 Z " fill="#245580" transform="translate(177,80)"/>
<path d="M0 0 C1.32 0 2.64 0 4 0 C4 6.6 4 13.2 4 20 C2.68 20 1.36 20 0 20 C0 13.4 0 6.8 0 0 Z " fill="#245580" transform="translate(95,73)"/>
<path d="M0 0 C2.05078125 0.03255208 4.1015625 0.06510417 6.15234375 0.09765625 C6.48234375 0.75765625 6.81234375 1.41765625 7.15234375 2.09765625 C6.82234375 2.75765625 6.49234375 3.41765625 6.15234375 4.09765625 C4.83234375 4.09765625 3.51234375 4.09765625 2.15234375 4.09765625 C1.82234375 7.06765625 1.49234375 10.03765625 1.15234375 13.09765625 C-0.16765625 13.09765625 -1.48765625 13.09765625 -2.84765625 13.09765625 C-2.87452178 11.11856227 -2.89399 9.13936654 -2.91015625 7.16015625 C-2.92175781 6.05800781 -2.93335937 4.95585938 -2.9453125 3.8203125 C-2.81361949 0.14871139 -2.81361949 0.14871139 0 0 Z " fill="#245580" transform="translate(122.84765625,79.90234375)"/>
<path d="M0 0 C0.99 0 1.98 0 3 0 C3 6.27 3 12.54 3 19 C2.01 19 1.02 19 0 19 C0 12.73 0 6.46 0 0 Z " fill="#245580" transform="translate(21,80)"/>
<path d="M0 0 C1.32 0 2.64 0 4 0 C4 4.29 4 8.58 4 13 C2.68 13 1.36 13 0 13 C0 8.71 0 4.42 0 0 Z " fill="#245580" transform="translate(161,80)"/>
<path d="M0 0 C1.32 0 2.64 0 4 0 C4 4.29 4 8.58 4 13 C2.68 13 1.36 13 0 13 C0 8.71 0 4.42 0 0 Z " fill="#245580" transform="translate(14,80)"/>
<path d="M0 0 C1.32 0 2.64 0 4 0 C4 1.32 4 2.64 4 4 C2.35 3.67 0.7 3.34 -1 3 C-0.67 2.01 -0.34 1.02 0 0 Z " fill="#245580" transform="translate(14,74)"/>
<path d="M0 0 C2.475 0.495 2.475 0.495 5 1 C4.67 1.99 4.34 2.98 4 4 C2.68 3.67 1.36 3.34 0 3 C0 2.01 0 1.02 0 0 Z " fill="#245580" transform="translate(20,74)"/>
</svg>
